<svg xmlns="http://www.w3.org/2000/svg" xmlns:xlink="http://www.w3.org/1999/xlink" width="500" zoomAndPan="magnify" viewBox="0 0 375 374.999991" height="500" preserveAspectRatio="xMidYMid meet" version="1.0"><path fill="#000000" d="M 152.140625 267.53125 C 148.386719 264.875 144.835938 261.972656 141.484375 258.824219 C 138.132812 255.671875 135.019531 252.304688 132.136719 248.722656 C 129.253906 245.140625 126.632812 241.378906 124.269531 237.429688 C 121.910156 233.484375 119.835938 229.394531 118.042969 225.160156 C 117.917969 224.851562 117.820312 224.535156 117.757812 224.207031 C 117.691406 223.878906 117.660156 223.550781 117.660156 223.214844 C 117.660156 222.882812 117.691406 222.550781 117.757812 222.222656 C 117.824219 221.898438 117.917969 221.578125 118.046875 221.269531 C 118.171875 220.964844 118.328125 220.667969 118.511719 220.390625 C 118.699219 220.113281 118.90625 219.855469 119.140625 219.621094 C 119.375 219.382812 119.632812 219.171875 119.90625 218.984375 C 120.183594 218.796875 120.476562 218.636719 120.78125 218.507812 C 121.089844 218.378906 121.40625 218.28125 121.734375 218.210938 C 122.058594 218.144531 122.390625 218.109375 122.722656 218.105469 C 123.054688 218.101562 123.386719 218.128906 123.714844 218.191406 C 124.042969 218.253906 124.363281 218.34375 124.671875 218.46875 C 124.980469 218.589844 125.277344 218.742188 125.554688 218.925781 C 125.835938 219.105469 126.09375 219.3125 126.335938 219.546875 C 126.574219 219.777344 126.789062 220.03125 126.980469 220.304688 C 127.167969 220.578125 127.332031 220.867188 127.464844 221.171875 C 129.074219 224.972656 130.9375 228.640625 133.054688 232.183594 C 135.171875 235.722656 137.523438 239.097656 140.109375 242.3125 C 142.695312 245.527344 145.492188 248.546875 148.496094 251.371094 C 151.5 254.195312 154.6875 256.800781 158.054688 259.183594 C 158.328125 259.378906 158.578125 259.597656 158.804688 259.84375 C 159.035156 260.085938 159.238281 260.351562 159.414062 260.636719 C 159.59375 260.917969 159.742188 261.21875 159.859375 261.53125 C 159.976562 261.84375 160.066406 262.164062 160.121094 262.496094 C 160.175781 262.824219 160.199219 263.160156 160.1875 263.492188 C 160.179688 263.828125 160.136719 264.160156 160.0625 264.484375 C 159.988281 264.8125 159.882812 265.128906 159.746094 265.433594 C 159.609375 265.738281 159.441406 266.027344 159.25 266.300781 C 159.054688 266.574219 158.835938 266.824219 158.59375 267.054688 C 158.351562 267.285156 158.089844 267.492188 157.804688 267.667969 C 157.523438 267.847656 157.222656 267.996094 156.910156 268.117188 C 156.597656 268.238281 156.277344 268.328125 155.949219 268.382812 C 155.617188 268.441406 155.285156 268.464844 154.953125 268.457031 C 154.617188 268.449219 154.285156 268.410156 153.960938 268.335938 C 153.632812 268.261719 153.316406 268.160156 153.007812 268.023438 C 152.703125 267.886719 152.414062 267.722656 152.140625 267.53125 Z M 152.140625 267.53125 " fill-opacity="1" fill-rule="nonzero"/><path fill="#000000" d="M 113.027344 209.925781 C 112.371094 207.234375 111.832031 204.460938 111.414062 201.691406 C 111.367188 201.359375 111.351562 201.027344 111.367188 200.691406 C 111.382812 200.359375 111.433594 200.03125 111.515625 199.707031 C 111.597656 199.382812 111.710938 199.070312 111.855469 198.765625 C 111.996094 198.464844 112.167969 198.179688 112.367188 197.910156 C 112.566406 197.644531 112.789062 197.398438 113.039062 197.171875 C 113.285156 196.949219 113.550781 196.75 113.839844 196.578125 C 114.125 196.402344 114.425781 196.261719 114.738281 196.148438 C 115.054688 196.035156 115.375 195.953125 115.707031 195.902344 C 116.039062 195.851562 116.371094 195.835938 116.703125 195.851562 C 117.039062 195.863281 117.367188 195.914062 117.691406 195.992188 C 118.015625 196.070312 118.332031 196.183594 118.632812 196.324219 C 118.9375 196.464844 119.222656 196.632812 119.492188 196.832031 C 119.761719 197.027344 120.011719 197.25 120.238281 197.496094 C 120.464844 197.742188 120.664062 198.007812 120.835938 198.292969 C 121.011719 198.578125 121.15625 198.878906 121.273438 199.191406 C 121.386719 199.503906 121.472656 199.828125 121.523438 200.15625 C 121.902344 202.640625 122.390625 205.113281 122.96875 207.519531 C 123.046875 207.84375 123.089844 208.175781 123.105469 208.507812 C 123.117188 208.84375 123.097656 209.175781 123.042969 209.507812 C 122.992188 209.839844 122.90625 210.160156 122.792969 210.476562 C 122.675781 210.789062 122.53125 211.089844 122.355469 211.375 C 122.179688 211.660156 121.980469 211.925781 121.75 212.171875 C 121.523438 212.417969 121.273438 212.640625 121.003906 212.839844 C 120.734375 213.035156 120.445312 213.203125 120.140625 213.34375 C 119.835938 213.488281 119.523438 213.597656 119.195312 213.675781 C 118.871094 213.753906 118.542969 213.800781 118.207031 213.8125 C 117.871094 213.828125 117.539062 213.808594 117.207031 213.757812 C 116.875 213.707031 116.554688 213.625 116.238281 213.507812 C 115.925781 213.394531 115.625 213.25 115.335938 213.074219 C 115.050781 212.902344 114.785156 212.699219 114.539062 212.472656 C 114.289062 212.25 114.066406 212 113.871094 211.730469 C 113.671875 211.460938 113.5 211.171875 113.359375 210.867188 C 113.21875 210.566406 113.105469 210.25 113.027344 209.925781 Z M 113.027344 209.925781 " fill-opacity="1" fill-rule="nonzero"/><path fill="#000000" d="M 174.015625 77.9375 C 173.699219 78.042969 173.394531 78.179688 173.105469 78.34375 C 172.8125 78.507812 172.542969 78.699219 172.289062 78.917969 C 172.035156 79.136719 171.804688 79.378906 171.601562 79.640625 C 171.394531 79.902344 171.214844 80.183594 171.066406 80.484375 C 170.914062 80.78125 170.792969 81.089844 170.703125 81.414062 C 170.613281 81.734375 170.554688 82.0625 170.53125 82.394531 C 170.503906 82.726562 170.511719 83.058594 170.550781 83.390625 C 170.589844 83.722656 170.660156 84.046875 170.761719 84.367188 C 170.863281 84.683594 170.996094 84.988281 171.160156 85.28125 C 171.324219 85.574219 171.511719 85.847656 171.726562 86.101562 C 171.945312 86.355469 172.183594 86.585938 172.445312 86.792969 C 172.707031 87.003906 172.984375 87.183594 173.28125 87.335938 C 173.578125 87.488281 173.886719 87.613281 174.207031 87.707031 C 174.53125 87.796875 174.855469 87.859375 175.1875 87.886719 C 175.523438 87.917969 175.855469 87.914062 176.1875 87.875 C 176.519531 87.839844 176.84375 87.769531 177.164062 87.671875 C 183.503906 85.644531 189.980469 84.246094 196.59375 83.472656 C 193.433594 92.632812 197.742188 99.089844 205.128906 104.519531 C 206.191406 105.234375 207.183594 106.035156 208.105469 106.925781 C 208.242188 112.339844 197.738281 119.261719 191.332031 120.367188 C 172.683594 123.582031 157.855469 123.667969 153.324219 132.070312 C 146.699219 144.351562 159.109375 154.320312 163.382812 159.4375 C 175.4375 173.890625 182.332031 174.730469 194.304688 172.917969 C 205.160156 171.285156 205.328125 177.667969 218.136719 177.777344 C 223.882812 177.84375 227.246094 182.753906 231.597656 186.605469 C 236.601562 190.898438 242.046875 194.539062 247.921875 197.527344 C 257.4375 202.855469 253.148438 210.519531 249.371094 218.726562 C 239.097656 240.988281 224.535156 243.007812 209.84375 263.707031 C 206.867188 268.101562 204.996094 272.925781 204.226562 278.179688 C 202.6875 276.507812 201.40625 274.660156 200.382812 272.632812 C 199.359375 270.605469 198.632812 268.480469 198.199219 266.25 C 195.3125 250.824219 219.746094 236.4375 192.175781 218.332031 C 190.03125 217.246094 188.117188 215.84375 186.4375 214.125 C 184.757812 212.410156 183.394531 210.46875 182.355469 208.300781 C 178.816406 199.527344 185.464844 197.222656 181.058594 185 C 174.515625 166.816406 148.875 162.015625 135.507812 145.746094 C 139.75 142.402344 143.53125 138.597656 146.855469 134.339844 C 150.175781 130.078125 152.945312 125.484375 155.15625 120.554688 C 156.53125 117.257812 157.628906 113.871094 158.453125 110.394531 C 159.277344 106.917969 159.8125 103.394531 160.058594 99.832031 C 160.308594 96.265625 160.265625 92.707031 159.933594 89.148438 C 159.597656 85.589844 158.980469 82.082031 158.074219 78.625 C 158 78.339844 157.90625 78.058594 157.796875 77.78125 C 157.683594 77.507812 157.554688 77.242188 157.410156 76.984375 C 157.261719 76.726562 157.101562 76.476562 156.921875 76.238281 C 156.746094 76.003906 156.550781 75.777344 156.34375 75.566406 C 156.136719 75.355469 155.917969 75.15625 155.683594 74.972656 C 155.449219 74.789062 155.207031 74.621094 154.949219 74.472656 C 154.695312 74.320312 154.429688 74.1875 154.160156 74.070312 C 153.886719 73.953125 153.605469 73.851562 153.320312 73.773438 C 153.035156 73.691406 152.746094 73.628906 152.453125 73.585938 C 152.160156 73.542969 151.863281 73.519531 151.566406 73.515625 C 151.269531 73.511719 150.976562 73.527344 150.679688 73.5625 C 150.386719 73.597656 150.09375 73.648438 149.808594 73.722656 C 149.519531 73.792969 149.238281 73.882812 148.960938 73.992188 C 148.6875 74.101562 148.417969 74.230469 148.160156 74.371094 C 147.898438 74.515625 147.648438 74.675781 147.410156 74.851562 C 147.171875 75.03125 146.945312 75.21875 146.734375 75.425781 C 128.855469 92.527344 117.75 84.484375 99.542969 106.929688 C 92.8125 115.21875 87.242188 130.558594 98.882812 156.5625 L 98.953125 156.71875 C 97.851562 160.785156 96.984375 164.902344 96.34375 169.066406 C 95.929688 168.597656 95.523438 168.148438 95.101562 167.703125 C 92.261719 148.566406 83.046875 133.820312 63.667969 136.132812 C 60.925781 136.628906 58.164062 136.757812 55.386719 136.523438 C 52.613281 136.289062 49.914062 135.699219 47.292969 134.75 C 46.722656 134.527344 46.136719 134.386719 45.53125 134.328125 C 44.925781 134.265625 44.320312 134.285156 43.71875 134.386719 C 43.117188 134.492188 42.542969 134.671875 41.992188 134.929688 C 41.4375 135.1875 40.929688 135.515625 40.46875 135.910156 C 40.003906 136.308594 39.601562 136.757812 39.261719 137.261719 C 38.921875 137.769531 38.652344 138.308594 38.457031 138.886719 C 38.265625 139.464844 38.148438 140.058594 38.117188 140.667969 C 38.082031 141.273438 38.128906 141.875 38.261719 142.472656 C 38.851562 145.214844 39.703125 147.871094 40.816406 150.445312 C 41.929688 153.019531 43.285156 155.460938 44.875 157.765625 C 46.46875 160.074219 48.273438 162.207031 50.285156 164.160156 C 52.296875 166.113281 54.480469 167.851562 56.835938 169.375 C 59.160156 170.835938 61.597656 172.074219 64.152344 173.082031 C 66.707031 174.09375 69.332031 174.859375 72.027344 175.382812 C 74.722656 175.910156 77.445312 176.179688 80.191406 176.199219 C 82.9375 176.21875 85.664062 175.988281 88.367188 175.503906 C 89.996094 177.152344 91.375 178.996094 92.496094 181.027344 C 93.617188 183.058594 94.441406 185.207031 94.96875 187.464844 C 94.996094 195.035156 95.773438 202.527344 97.300781 209.941406 C 98.824219 217.355469 101.070312 224.542969 104.035156 231.507812 C 104.167969 231.816406 104.328125 232.109375 104.519531 232.382812 C 104.707031 232.660156 104.921875 232.914062 105.164062 233.148438 C 105.402344 233.382812 105.664062 233.589844 105.945312 233.773438 C 106.226562 233.957031 106.519531 234.109375 106.832031 234.234375 C 107.144531 234.359375 107.464844 234.453125 107.792969 234.511719 C 108.121094 234.574219 108.453125 234.605469 108.789062 234.601562 C 109.125 234.597656 109.457031 234.558594 109.785156 234.492188 C 110.113281 234.421875 110.429688 234.324219 110.738281 234.191406 C 111.046875 234.058594 111.339844 233.898438 111.617188 233.710938 C 111.894531 233.523438 112.148438 233.308594 112.382812 233.070312 C 112.617188 232.828125 112.828125 232.570312 113.011719 232.289062 C 113.195312 232.007812 113.351562 231.714844 113.476562 231.402344 C 113.601562 231.09375 113.695312 230.773438 113.757812 230.441406 C 113.820312 230.113281 113.851562 229.78125 113.847656 229.445312 C 113.847656 229.113281 113.8125 228.78125 113.742188 228.453125 C 113.675781 228.125 113.578125 227.804688 113.445312 227.496094 C 111.191406 222.183594 109.390625 216.722656 108.042969 211.113281 C 106.695312 205.5 105.820312 199.816406 105.417969 194.0625 C 105.015625 188.304688 105.089844 182.554688 105.644531 176.8125 C 106.195312 171.066406 107.21875 165.40625 108.710938 159.832031 C 115.171875 157.851562 121.292969 155.117188 127.078125 151.625 C 142.058594 170.367188 166.417969 174.539062 171.4375 188.464844 C 174.515625 197.015625 167.910156 199.824219 172.863281 212.125 C 174.277344 215.265625 176.15625 218.101562 178.5 220.625 C 180.847656 223.152344 183.53125 225.238281 186.558594 226.882812 C 207.042969 240.324219 183.976562 245.929688 188.148438 268.140625 C 188.488281 270.070312 189 271.953125 189.683594 273.789062 C 190.367188 275.625 191.210938 277.382812 192.214844 279.066406 C 193.222656 280.746094 194.371094 282.324219 195.664062 283.792969 C 196.957031 285.265625 198.375 286.609375 199.914062 287.820312 C 205.804688 291.730469 212.195312 290.3125 214.316406 279.902344 C 214.839844 276.1875 216.132812 272.765625 218.1875 269.628906 C 231.816406 250.417969 247.25 247.734375 258.664062 223.015625 C 265.601562 208.78125 267.222656 196.605469 252.917969 188.601562 C 247.691406 185.960938 242.84375 182.742188 238.382812 178.945312 C 231.996094 173.300781 228.574219 167.636719 218.234375 167.550781 C 207.210938 167.429688 208.082031 160.503906 192.773438 162.800781 C 184.480469 164.058594 180.933594 164.523438 171.242188 152.882812 C 167.484375 148.375 159.53125 142.105469 162.320312 136.9375 C 164.238281 134.039062 181.144531 132.507812 193.070312 130.449219 C 202.050781 128.902344 218.648438 119.371094 218.339844 106.671875 C 218.207031 105.582031 217.949219 104.523438 217.558594 103.496094 C 217.171875 102.46875 216.667969 101.503906 216.046875 100.597656 C 215.421875 99.691406 214.703125 98.875 213.882812 98.144531 C 213.0625 97.414062 212.164062 96.792969 211.195312 96.277344 C 203.386719 90.535156 205.824219 89.070312 207.785156 82.6875 C 209.996094 82.605469 212.203125 82.675781 214.40625 82.890625 C 219.59375 91.78125 231.511719 101.269531 242.554688 99.160156 C 244.671875 98.636719 246.675781 97.828125 248.5625 96.726562 C 250.449219 95.628906 252.140625 94.289062 253.644531 92.703125 C 258.320312 94.882812 262.808594 97.394531 267.113281 100.242188 C 266.332031 113.992188 276.082031 130.230469 294.355469 126.949219 C 295.3125 128.3125 296.21875 129.707031 297.113281 131.117188 C 295.128906 132.976562 293.445312 135.082031 292.0625 137.425781 C 290.683594 139.769531 289.660156 142.261719 289 144.902344 C 286.960938 152.785156 289.507812 157.085938 291.296875 166.527344 C 295.011719 186.121094 289.753906 196.945312 298.671875 200.75 C 299.507812 201.050781 300.367188 201.242188 301.25 201.324219 C 302.132812 201.40625 303.015625 201.378906 303.890625 201.242188 C 304.769531 201.101562 305.613281 200.859375 306.429688 200.507812 C 307.246094 200.15625 308.003906 199.710938 308.707031 199.167969 C 309.9375 198.472656 311.453125 197.484375 312.742188 197.941406 C 312.464844 200.480469 312.097656 203.003906 311.640625 205.515625 C 311.179688 208.023438 310.628906 210.515625 309.984375 212.984375 C 309.339844 215.453125 308.609375 217.894531 307.785156 220.3125 C 306.960938 222.726562 306.050781 225.109375 305.054688 227.457031 C 304.054688 229.808594 302.972656 232.117188 301.804688 234.386719 C 300.636719 236.652344 299.386719 238.878906 298.054688 241.054688 C 296.722656 243.230469 295.3125 245.355469 293.824219 247.429688 C 292.339844 249.503906 290.777344 251.519531 289.140625 253.476562 C 287.503906 255.4375 285.796875 257.332031 284.023438 259.164062 C 282.246094 261 280.40625 262.765625 278.5 264.460938 C 276.597656 266.160156 274.632812 267.785156 272.605469 269.339844 C 270.582031 270.890625 268.5 272.367188 266.367188 273.769531 C 264.234375 275.167969 262.050781 276.488281 259.820312 277.726562 C 257.589844 278.96875 255.316406 280.125 253.003906 281.195312 C 250.6875 282.269531 248.335938 283.253906 245.945312 284.15625 C 243.558594 285.054688 241.140625 285.863281 238.691406 286.585938 C 236.246094 287.308594 233.773438 287.9375 231.28125 288.480469 C 228.785156 289.019531 226.273438 289.46875 223.746094 289.820312 C 221.21875 290.175781 218.683594 290.4375 216.136719 290.609375 C 213.589844 290.777344 211.042969 290.851562 208.488281 290.832031 C 205.9375 290.8125 203.390625 290.703125 200.847656 290.496094 C 198.300781 290.289062 195.769531 289.988281 193.25 289.597656 C 190.726562 289.203125 188.222656 288.71875 185.738281 288.144531 C 183.25 287.566406 180.789062 286.898438 178.351562 286.140625 C 175.914062 285.382812 173.507812 284.539062 171.136719 283.601562 C 168.761719 282.667969 166.421875 281.648438 164.125 280.542969 C 161.824219 279.433594 159.566406 278.246094 157.355469 276.972656 C 155.144531 275.699219 152.980469 274.347656 150.867188 272.917969 C 148.757812 271.484375 146.699219 269.976562 144.695312 268.394531 C 142.695312 266.8125 140.753906 265.15625 138.875 263.433594 C 136.996094 261.707031 135.179688 259.914062 133.433594 258.054688 C 131.683594 256.195312 130.003906 254.273438 128.398438 252.292969 C 128.1875 252.035156 127.949219 251.800781 127.691406 251.589844 C 127.433594 251.378906 127.15625 251.191406 126.859375 251.035156 C 126.566406 250.878906 126.257812 250.75 125.9375 250.65625 C 125.621094 250.558594 125.292969 250.492188 124.960938 250.460938 C 124.628906 250.425781 124.296875 250.425781 123.964844 250.457031 C 123.632812 250.492188 123.304688 250.554688 122.984375 250.652344 C 122.664062 250.746094 122.355469 250.871094 122.0625 251.027344 C 121.765625 251.183594 121.488281 251.367188 121.230469 251.578125 C 120.96875 251.789062 120.734375 252.023438 120.519531 252.28125 C 120.304688 252.539062 120.121094 252.8125 119.960938 253.105469 C 119.800781 253.398438 119.671875 253.707031 119.570312 254.023438 C 119.472656 254.34375 119.402344 254.667969 119.367188 255 C 119.332031 255.332031 119.328125 255.664062 119.359375 256 C 119.386719 256.332031 119.449219 256.660156 119.542969 256.980469 C 119.636719 257.300781 119.757812 257.609375 119.914062 257.90625 C 120.066406 258.203125 120.246094 258.480469 120.457031 258.742188 C 121.542969 260.082031 122.660156 261.394531 123.804688 262.683594 C 124.949219 263.976562 126.125 265.238281 127.328125 266.472656 C 128.53125 267.710938 129.761719 268.917969 131.019531 270.097656 C 132.277344 271.277344 133.5625 272.429688 134.871094 273.550781 C 136.183594 274.675781 137.519531 275.765625 138.878906 276.828125 C 140.238281 277.890625 141.621094 278.921875 143.027344 279.917969 C 144.433594 280.917969 145.859375 281.886719 147.308594 282.820312 C 148.761719 283.753906 150.230469 284.65625 151.722656 285.523438 C 153.210938 286.390625 154.722656 287.226562 156.25 288.027344 C 157.777344 288.824219 159.324219 289.589844 160.886719 290.320312 C 162.449219 291.050781 164.027344 291.742188 165.625 292.402344 C 167.21875 293.058594 168.828125 293.683594 170.449219 294.269531 C 172.070312 294.851562 173.707031 295.402344 175.355469 295.914062 C 177 296.425781 178.660156 296.898438 180.328125 297.335938 C 181.996094 297.773438 183.675781 298.171875 185.363281 298.53125 C 187.050781 298.890625 188.742188 299.214844 190.445312 299.496094 C 192.148438 299.78125 193.855469 300.027344 195.566406 300.234375 C 197.28125 300.4375 198.996094 300.605469 200.714844 300.734375 C 202.4375 300.863281 204.160156 300.953125 205.882812 301.003906 C 207.605469 301.054688 209.332031 301.066406 211.054688 301.042969 C 212.78125 301.015625 214.503906 300.949219 216.226562 300.84375 C 217.949219 300.738281 219.667969 300.59375 221.382812 300.410156 C 223.097656 300.226562 224.808594 300.007812 226.511719 299.746094 C 228.21875 299.484375 229.917969 299.1875 231.609375 298.847656 C 233.300781 298.511719 234.984375 298.136719 236.660156 297.722656 C 238.332031 297.308594 239.996094 296.859375 241.652344 296.371094 C 243.304688 295.882812 244.949219 295.355469 246.578125 294.792969 C 248.210938 294.230469 249.828125 293.628906 251.429688 292.992188 C 253.035156 292.359375 254.621094 291.683594 256.195312 290.976562 C 257.769531 290.269531 259.324219 289.527344 260.863281 288.746094 C 262.402344 287.96875 263.925781 287.15625 265.425781 286.308594 C 266.929688 285.460938 268.410156 284.578125 269.875 283.664062 C 271.335938 282.75 272.777344 281.804688 274.199219 280.824219 C 275.617188 279.84375 277.015625 278.832031 278.390625 277.789062 C 279.761719 276.746094 281.113281 275.671875 282.4375 274.570312 C 283.761719 273.464844 285.0625 272.332031 286.335938 271.167969 C 287.613281 270.007812 288.859375 268.816406 290.078125 267.597656 C 291.300781 266.375 292.492188 265.128906 293.65625 263.855469 C 294.820312 262.582031 295.953125 261.285156 297.058594 259.960938 C 298.164062 258.636719 299.238281 257.285156 300.28125 255.914062 C 301.328125 254.539062 302.339844 253.144531 303.320312 251.726562 C 304.300781 250.304688 305.25 248.867188 306.164062 247.402344 C 307.078125 245.941406 307.960938 244.460938 308.808594 242.957031 C 309.660156 241.457031 310.472656 239.933594 311.253906 238.394531 C 312.03125 236.859375 312.777344 235.300781 313.484375 233.730469 C 314.195312 232.15625 314.867188 230.570312 315.507812 228.964844 C 316.144531 227.363281 316.746094 225.746094 317.308594 224.117188 C 317.875 222.488281 318.398438 220.84375 318.890625 219.191406 C 319.378906 217.535156 319.832031 215.871094 320.246094 214.199219 C 320.660156 212.523438 321.039062 210.839844 321.375 209.148438 C 321.714844 207.457031 322.015625 205.757812 322.277344 204.054688 C 322.539062 202.347656 322.761719 200.640625 322.945312 198.921875 C 323.128906 197.207031 323.273438 195.488281 323.382812 193.769531 C 323.488281 192.046875 323.554688 190.324219 323.585938 188.597656 C 323.613281 186.875 323.601562 185.148438 323.550781 183.425781 C 323.503906 181.699219 323.414062 179.976562 323.285156 178.257812 C 323.160156 176.539062 322.992188 174.820312 322.789062 173.109375 C 322.582031 171.394531 322.339844 169.6875 322.054688 167.988281 C 321.773438 166.285156 321.453125 164.589844 321.09375 162.902344 C 320.734375 161.214844 320.335938 159.539062 319.902344 157.867188 C 319.464844 156.199219 318.992188 154.539062 318.484375 152.890625 C 317.972656 151.246094 317.425781 149.609375 316.839844 147.984375 C 316.257812 146.363281 315.636719 144.753906 314.980469 143.160156 C 314.320312 141.5625 313.628906 139.984375 312.902344 138.421875 C 312.171875 136.859375 311.410156 135.3125 310.609375 133.78125 C 309.8125 132.253906 308.980469 130.742188 308.113281 129.25 C 307.246094 127.761719 306.34375 126.289062 305.410156 124.839844 C 304.476562 123.386719 303.511719 121.960938 302.511719 120.550781 C 301.515625 119.144531 300.484375 117.761719 299.425781 116.402344 C 298.363281 115.039062 297.273438 113.707031 296.152344 112.394531 C 295.03125 111.082031 293.878906 109.796875 292.703125 108.539062 C 291.523438 107.28125 290.316406 106.050781 289.078125 104.84375 C 287.84375 103.640625 286.582031 102.464844 285.292969 101.316406 C 284.003906 100.171875 282.691406 99.054688 281.351562 97.964844 C 280.015625 96.878906 278.652344 95.820312 277.265625 94.796875 C 275.878906 93.769531 274.46875 92.773438 273.035156 91.8125 C 271.605469 90.851562 270.152344 89.921875 268.679688 89.023438 C 267.203125 88.128906 265.710938 87.265625 264.199219 86.4375 C 262.6875 85.609375 261.15625 84.8125 259.605469 84.054688 C 258.058594 83.292969 256.492188 82.570312 254.910156 81.882812 C 253.328125 81.191406 251.734375 80.539062 250.121094 79.921875 C 248.511719 79.308594 246.886719 78.726562 245.25 78.183594 C 243.613281 77.640625 241.960938 77.136719 240.300781 76.667969 C 238.640625 76.199219 236.972656 75.769531 235.292969 75.375 C 233.613281 74.984375 231.925781 74.628906 230.230469 74.3125 C 228.535156 73.996094 226.832031 73.71875 225.125 73.476562 C 223.414062 73.238281 221.703125 73.039062 219.984375 72.875 C 218.265625 72.714844 216.546875 72.59375 214.824219 72.507812 C 213.101562 72.425781 211.375 72.378906 209.652344 72.375 C 207.925781 72.367188 206.203125 72.398438 204.480469 72.472656 C 202.753906 72.542969 201.035156 72.65625 199.316406 72.804688 C 197.597656 72.957031 195.882812 73.144531 194.171875 73.371094 C 192.464844 73.597656 190.757812 73.867188 189.0625 74.171875 C 187.363281 74.476562 185.671875 74.816406 183.992188 75.199219 C 182.308594 75.582031 180.636719 76 178.972656 76.457031 C 177.308594 76.914062 175.65625 77.40625 174.015625 77.9375 Z M 107.488281 113.375 C 122.429688 94.960938 131.726562 100.980469 149.28125 86.777344 C 150.121094 91.777344 150.246094 96.796875 149.65625 101.832031 C 149.066406 106.867188 147.785156 111.71875 145.8125 116.390625 C 144.109375 120 142.078125 123.417969 139.714844 126.636719 C 137.355469 129.855469 134.707031 132.820312 131.773438 135.53125 C 128.84375 138.242188 125.679688 140.648438 122.285156 142.75 C 118.886719 144.851562 115.324219 146.609375 111.589844 148.027344 C 113.421875 142.453125 116.03125 137.273438 119.417969 132.488281 C 122.808594 127.699219 126.824219 123.515625 131.464844 119.929688 C 131.726562 119.722656 131.96875 119.492188 132.183594 119.238281 C 132.402344 118.984375 132.589844 118.710938 132.753906 118.417969 C 132.917969 118.125 133.050781 117.820312 133.152344 117.503906 C 133.257812 117.1875 133.328125 116.859375 133.367188 116.527344 C 133.40625 116.195312 133.414062 115.863281 133.390625 115.53125 C 133.363281 115.199219 133.304688 114.871094 133.214844 114.546875 C 133.125 114.226562 133.007812 113.914062 132.855469 113.617188 C 132.707031 113.320312 132.527344 113.039062 132.320312 112.773438 C 132.117188 112.511719 131.886719 112.269531 131.632812 112.050781 C 131.382812 111.832031 131.109375 111.640625 130.820312 111.476562 C 130.527344 111.308594 130.222656 111.175781 129.90625 111.066406 C 129.589844 110.960938 129.265625 110.886719 128.933594 110.847656 C 128.601562 110.804688 128.269531 110.792969 127.9375 110.816406 C 127.601562 110.839844 127.273438 110.894531 126.953125 110.980469 C 126.628906 111.070312 126.316406 111.1875 126.019531 111.335938 C 125.71875 111.484375 125.4375 111.660156 125.171875 111.863281 C 120.457031 115.507812 116.285156 119.691406 112.660156 124.421875 C 109.035156 129.152344 106.074219 134.265625 103.78125 139.765625 C 101.019531 128.738281 102.214844 119.871094 107.488281 113.375 Z M 50.140625 146.160156 C 55.039062 146.992188 59.949219 147.039062 64.863281 146.292969 C 65.738281 146.132812 66.617188 146.054688 67.507812 146.054688 C 68.394531 146.058594 69.277344 146.140625 70.152344 146.300781 C 71.027344 146.460938 71.878906 146.703125 72.710938 147.019531 C 73.539062 147.335938 74.335938 147.726562 75.09375 148.191406 C 75.851562 148.652344 76.5625 149.179688 77.226562 149.773438 C 77.890625 150.363281 78.496094 151.011719 79.039062 151.714844 C 79.585938 152.417969 80.0625 153.160156 80.46875 153.953125 C 80.878906 154.742188 81.210938 155.5625 81.472656 156.410156 C 78.324219 154.199219 74.917969 152.519531 71.246094 151.371094 C 70.925781 151.273438 70.601562 151.210938 70.265625 151.183594 C 69.933594 151.152344 69.601562 151.152344 69.269531 151.1875 C 68.9375 151.222656 68.609375 151.289062 68.292969 151.386719 C 67.972656 151.488281 67.664062 151.617188 67.371094 151.773438 C 67.078125 151.933594 66.800781 152.117188 66.542969 152.332031 C 66.285156 152.542969 66.050781 152.777344 65.839844 153.039062 C 65.628906 153.296875 65.441406 153.574219 65.285156 153.867188 C 65.128906 154.164062 65 154.46875 64.902344 154.789062 C 64.808594 155.109375 64.742188 155.433594 64.707031 155.769531 C 64.675781 156.101562 64.675781 156.433594 64.707031 156.765625 C 64.738281 157.097656 64.800781 157.425781 64.898438 157.746094 C 64.992188 158.066406 65.117188 158.371094 65.273438 158.667969 C 65.429688 158.964844 65.613281 159.242188 65.824219 159.5 C 66.035156 159.761719 66.269531 159.996094 66.527344 160.210938 C 66.78125 160.425781 67.058594 160.613281 67.351562 160.773438 C 67.644531 160.933594 67.949219 161.0625 68.269531 161.160156 C 71.503906 162.136719 74.449219 163.664062 77.109375 165.746094 C 71.785156 165.28125 66.863281 163.617188 62.351562 160.757812 C 59.617188 159.007812 57.207031 156.886719 55.125 154.394531 C 53.042969 151.90625 51.378906 149.160156 50.140625 146.160156 Z M 229.292969 84.605469 C 233.859375 85.519531 238.34375 86.734375 242.746094 88.257812 C 238.421875 90.714844 233.136719 87.753906 229.292969 84.605469 Z M 279.285156 109.921875 C 281.582031 112.019531 283.78125 114.210938 285.882812 116.5 C 284.382812 115.894531 283.0625 115.019531 281.917969 113.878906 C 280.773438 112.738281 279.898438 111.417969 279.285156 109.921875 Z M 303.292969 190.476562 C 303.378906 181.800781 302.730469 173.183594 301.347656 164.617188 C 299.769531 156.332031 297.753906 151.910156 298.898438 147.472656 C 299.578125 144.867188 300.714844 142.484375 302.3125 140.320312 C 306.015625 147.648438 308.796875 155.3125 310.660156 163.3125 C 312.519531 171.3125 313.410156 179.417969 313.324219 187.632812 C 311.539062 187.523438 309.785156 187.714844 308.066406 188.203125 C 306.34375 188.691406 304.753906 189.449219 303.292969 190.476562 Z M 303.292969 190.476562 " fill-opacity="1" fill-rule="nonzero"/><path fill="#000000" d="M 120.800781 243.003906 C 120.800781 243.339844 120.769531 243.671875 120.703125 244.003906 C 120.636719 244.332031 120.539062 244.652344 120.414062 244.964844 C 120.285156 245.273438 120.125 245.566406 119.9375 245.847656 C 119.753906 246.125 119.539062 246.386719 119.304688 246.621094 C 119.066406 246.859375 118.808594 247.070312 118.527344 247.257812 C 118.25 247.445312 117.953125 247.601562 117.644531 247.730469 C 117.332031 247.859375 117.011719 247.957031 116.683594 248.023438 C 116.355469 248.089844 116.023438 248.121094 115.6875 248.121094 C 115.351562 248.121094 115.015625 248.089844 114.6875 248.023438 C 114.359375 247.957031 114.039062 247.859375 113.726562 247.730469 C 113.417969 247.601562 113.121094 247.445312 112.84375 247.257812 C 112.566406 247.070312 112.304688 246.859375 112.070312 246.621094 C 111.832031 246.386719 111.617188 246.125 111.433594 245.847656 C 111.246094 245.566406 111.089844 245.273438 110.960938 244.964844 C 110.832031 244.652344 110.734375 244.332031 110.667969 244.003906 C 110.601562 243.671875 110.570312 243.339844 110.570312 243.003906 C 110.570312 242.667969 110.601562 242.335938 110.667969 242.007812 C 110.734375 241.679688 110.832031 241.359375 110.960938 241.046875 C 111.089844 240.738281 111.246094 240.441406 111.433594 240.164062 C 111.617188 239.882812 111.832031 239.625 112.070312 239.386719 C 112.304688 239.152344 112.566406 238.9375 112.84375 238.75 C 113.121094 238.566406 113.417969 238.40625 113.726562 238.277344 C 114.039062 238.152344 114.359375 238.054688 114.6875 237.988281 C 115.015625 237.921875 115.351562 237.890625 115.6875 237.890625 C 116.023438 237.890625 116.355469 237.921875 116.683594 237.988281 C 117.011719 238.054688 117.332031 238.152344 117.644531 238.277344 C 117.953125 238.40625 118.25 238.566406 118.527344 238.75 C 118.808594 238.9375 119.066406 239.152344 119.304688 239.386719 C 119.539062 239.625 119.753906 239.882812 119.9375 240.164062 C 120.125 240.441406 120.285156 240.738281 120.414062 241.046875 C 120.539062 241.359375 120.636719 241.679688 120.703125 242.007812 C 120.769531 242.335938 120.800781 242.667969 120.800781 243.003906 Z M 120.800781 243.003906 " fill-opacity="1" fill-rule="nonzero"/></svg>