<svg xmlns="http://www.w3.org/2000/svg" xmlns:xlink="http://www.w3.org/1999/xlink" width="500" zoomAndPan="magnify" viewBox="0 0 375 374.999991" height="500" preserveAspectRatio="xMidYMid meet" version="1.0"><defs><clipPath id="5b4d92e8c2"><path d="M 60 121 L 311 121 L 311 334.5 L 60 334.5 Z M 60 121 " clip-rule="nonzero"/></clipPath><clipPath id="3c4c804b7d"><path d="M 297 37.5 L 334.5 37.5 L 334.5 122 L 297 122 Z M 297 37.5 " clip-rule="nonzero"/></clipPath><clipPath id="bbe21ca728"><path d="M 250 37.5 L 288 37.5 L 288 122 L 250 122 Z M 250 37.5 " clip-rule="nonzero"/></clipPath><clipPath id="6622827e7c"><path d="M 37.5 74 L 56 74 L 56 84 L 37.5 84 Z M 37.5 74 " clip-rule="nonzero"/></clipPath></defs><path fill="#000000" d="M 153.796875 211.121094 C 154.949219 213.425781 157.75 214.25 160.054688 213.097656 C 162.363281 211.945312 163.183594 209.144531 162.195312 206.835938 C 158.738281 199.917969 151.820312 195.472656 144.078125 194.976562 C 136.335938 195.472656 129.582031 199.917969 125.957031 206.835938 C 124.804688 209.144531 125.792969 211.945312 128.097656 213.097656 C 130.40625 214.25 133.207031 213.261719 134.359375 211.121094 C 136.335938 207.332031 139.960938 204.859375 144.078125 204.367188 C 148.195312 204.859375 151.820312 207.496094 153.796875 211.121094 Z M 153.796875 211.121094 " fill-opacity="1" fill-rule="nonzero"/><path fill="#000000" d="M 227.429688 195.140625 C 219.6875 195.636719 212.933594 200.085938 209.308594 207.003906 C 208.15625 209.308594 209.144531 212.109375 211.449219 213.261719 C 213.757812 214.414062 216.554688 213.425781 217.710938 211.285156 C 219.6875 207.496094 223.308594 205.027344 227.429688 204.53125 C 231.546875 205.027344 235.335938 207.496094 237.148438 211.285156 C 238.300781 213.589844 241.101562 214.414062 243.40625 213.261719 C 245.714844 212.109375 246.535156 209.308594 245.382812 207.003906 C 241.925781 200.085938 235.171875 195.636719 227.429688 195.140625 Z M 227.429688 195.140625 " fill-opacity="1" fill-rule="nonzero"/><g clip-path="url(#5b4d92e8c2)"><path fill="#000000" d="M 241.59375 121.015625 L 241.265625 121.015625 C 219.191406 121.179688 198.929688 134.523438 185.753906 157.253906 C 172.574219 134.523438 152.3125 121.015625 130.242188 121.015625 L 129.746094 121.015625 C 112.121094 121.34375 95.152344 128.59375 82.800781 141.277344 C 68.46875 155.609375 60.5625 175.046875 60.726562 195.140625 C 60.726562 263.503906 178.503906 330.710938 183.445312 333.511719 C 184.929688 334.335938 186.578125 334.335938 188.058594 333.511719 C 193 330.710938 310.78125 263.503906 310.78125 195.140625 C 310.945312 174.882812 302.871094 155.609375 288.542969 141.277344 C 276.1875 128.757812 259.386719 121.34375 241.59375 121.015625 Z M 185.753906 324.121094 C 169.28125 314.402344 69.949219 253.289062 69.949219 195.140625 C 69.785156 177.351562 76.871094 160.386719 89.386719 147.867188 C 100.09375 136.996094 114.589844 130.734375 129.746094 130.242188 L 130.074219 130.242188 C 150.996094 130.40625 170.105469 144.902344 181.46875 169.28125 C 182.625 171.585938 185.257812 172.574219 187.566406 171.585938 C 188.554688 171.09375 189.375 170.269531 189.871094 169.28125 C 201.238281 145.066406 220.511719 130.40625 241.265625 130.242188 L 241.59375 130.242188 C 256.914062 130.570312 271.410156 136.828125 281.953125 147.867188 C 294.472656 160.386719 301.554688 177.351562 301.390625 195.140625 C 301.554688 253.289062 202.226562 314.402344 185.753906 324.121094 Z M 185.753906 324.121094 " fill-opacity="1" fill-rule="nonzero"/></g><path fill="#000000" d="M 114.097656 144.734375 C 112.78125 145.394531 83.789062 160.21875 83.789062 185.917969 C 83.789062 188.554688 85.929688 190.53125 88.398438 190.53125 C 90.871094 190.53125 93.011719 188.386719 93.011719 185.917969 C 93.011719 165.984375 118.050781 153.136719 118.214844 152.972656 C 120.523438 151.820312 121.34375 149.019531 120.191406 146.714844 C 119.203125 144.40625 116.402344 143.582031 114.097656 144.734375 Z M 114.097656 144.734375 " fill-opacity="1" fill-rule="nonzero"/><path fill="#000000" d="M 83.789062 199.753906 L 93.011719 199.753906 L 93.011719 208.980469 L 83.789062 208.980469 Z M 83.789062 199.753906 " fill-opacity="1" fill-rule="nonzero"/><path fill="#000000" d="M 230.722656 247.523438 C 228.910156 245.714844 225.945312 245.714844 224.132812 247.523438 C 223.96875 247.691406 206.671875 264.65625 185.753906 264.65625 C 164.832031 264.65625 147.535156 247.691406 147.371094 247.523438 C 145.558594 245.714844 142.59375 245.714844 140.78125 247.523438 C 138.972656 249.335938 138.972656 252.300781 140.78125 253.949219 C 141.605469 254.773438 160.878906 273.882812 185.753906 273.882812 C 189.210938 273.882812 192.835938 273.550781 196.296875 272.726562 L 199.753906 279.644531 C 204.039062 288.046875 214.25 291.507812 222.652344 287.222656 C 231.050781 282.941406 234.511719 272.726562 230.230469 264.328125 L 226.933594 257.902344 C 226.769531 257.738281 226.769531 257.738281 226.605469 257.574219 C 229.074219 255.597656 230.394531 254.277344 230.558594 253.949219 C 232.535156 252.136719 232.535156 249.335938 230.722656 247.523438 Z M 221.828125 268.609375 C 223.804688 272.398438 222.15625 277.175781 218.367188 278.988281 C 214.578125 280.964844 209.804688 279.316406 207.992188 275.527344 L 205.355469 270.09375 C 206.34375 269.761719 207.332031 269.269531 208.320312 268.9375 L 209.472656 271.410156 C 210.625 273.714844 213.425781 274.703125 215.734375 273.550781 C 218.039062 272.398438 219.027344 269.597656 217.875 267.292969 L 216.554688 264.820312 C 217.546875 264.328125 218.367188 263.667969 219.191406 263.175781 Z M 221.828125 268.609375 " fill-opacity="1" fill-rule="nonzero"/><g clip-path="url(#3c4c804b7d)"><path fill="#000000" d="M 334.003906 60.890625 C 334.003906 48.042969 325.769531 37.664062 315.554688 37.664062 C 305.34375 37.664062 297.105469 48.042969 297.105469 60.890625 C 296.613281 70.609375 302.050781 79.503906 310.945312 83.292969 L 310.945312 116.566406 C 310.945312 119.203125 313.085938 121.179688 315.554688 121.179688 C 318.191406 121.179688 320.167969 119.039062 320.167969 116.566406 L 320.167969 83.128906 C 328.898438 79.339844 334.5 70.445312 334.003906 60.890625 Z M 315.390625 74.726562 C 310.449219 74.726562 306.167969 68.304688 306.167969 60.890625 C 306.167969 53.476562 310.449219 47.054688 315.390625 47.054688 C 320.332031 47.054688 324.617188 53.476562 324.617188 60.890625 C 324.617188 68.304688 320.5 74.726562 315.390625 74.726562 Z M 315.390625 74.726562 " fill-opacity="1" fill-rule="nonzero"/></g><g clip-path="url(#bbe21ca728)"><path fill="#000000" d="M 264.492188 79.339844 L 264.492188 116.402344 C 264.492188 119.039062 266.632812 121.015625 269.105469 121.015625 C 271.738281 121.015625 273.714844 118.875 273.714844 116.402344 L 273.714844 79.339844 C 281.457031 79.339844 287.554688 73.082031 287.554688 65.503906 L 287.554688 42.277344 C 287.554688 39.640625 285.410156 37.664062 282.941406 37.664062 C 280.304688 37.664062 278.328125 39.804688 278.328125 42.277344 L 278.328125 65.503906 C 278.328125 68.140625 276.1875 70.117188 273.714844 70.117188 L 273.714844 42.277344 C 273.714844 39.640625 271.574219 37.664062 269.105469 37.664062 C 266.46875 37.664062 264.492188 39.804688 264.492188 42.277344 L 264.492188 70.117188 C 261.855469 70.117188 259.878906 67.972656 259.878906 65.503906 L 259.878906 42.277344 C 259.878906 39.640625 257.738281 37.664062 255.265625 37.664062 C 252.632812 37.664062 250.65625 39.804688 250.65625 42.277344 L 250.65625 65.503906 C 250.65625 73.082031 256.75 79.339844 264.492188 79.339844 Z M 264.492188 79.339844 " fill-opacity="1" fill-rule="nonzero"/></g><path fill="#000000" d="M 60.726562 74.726562 C 63.363281 74.726562 65.339844 72.585938 65.339844 70.117188 L 65.339844 60.890625 C 65.339844 58.253906 63.195312 56.277344 60.726562 56.277344 C 58.253906 56.277344 56.113281 58.421875 56.113281 60.890625 L 56.113281 70.117188 C 55.949219 72.585938 58.089844 74.726562 60.726562 74.726562 Z M 60.726562 74.726562 " fill-opacity="1" fill-rule="nonzero"/><path fill="#000000" d="M 65.339844 97.953125 L 65.339844 88.730469 C 65.339844 86.09375 63.195312 84.117188 60.726562 84.117188 C 58.253906 84.117188 56.113281 86.257812 56.113281 88.730469 L 56.113281 97.953125 C 56.113281 100.589844 58.253906 102.566406 60.726562 102.566406 C 63.195312 102.566406 65.339844 100.425781 65.339844 97.953125 Z M 65.339844 97.953125 " fill-opacity="1" fill-rule="nonzero"/><path fill="#000000" d="M 69.949219 83.953125 L 79.175781 83.953125 C 81.8125 83.953125 83.789062 81.8125 83.789062 79.339844 C 83.789062 76.871094 81.644531 74.726562 79.175781 74.726562 L 69.949219 74.726562 C 67.316406 74.726562 65.339844 76.871094 65.339844 79.339844 C 65.339844 81.8125 67.316406 83.953125 69.949219 83.953125 Z M 69.949219 83.953125 " fill-opacity="1" fill-rule="nonzero"/><g clip-path="url(#6622827e7c)"><path fill="#000000" d="M 51.335938 74.726562 L 42.113281 74.726562 C 39.476562 74.726562 37.5 76.871094 37.5 79.339844 C 37.5 81.8125 39.640625 83.953125 42.113281 83.953125 L 51.335938 83.953125 C 53.972656 83.953125 55.949219 81.8125 55.949219 79.339844 C 55.949219 76.871094 53.972656 74.726562 51.335938 74.726562 Z M 51.335938 74.726562 " fill-opacity="1" fill-rule="nonzero"/></g><path fill="#000000" d="M 125.464844 102.566406 C 133.207031 102.566406 139.300781 96.308594 139.300781 88.730469 C 139.300781 81.152344 133.039062 74.894531 125.464844 74.894531 C 117.886719 74.894531 111.625 80.988281 111.625 88.566406 C 111.625 96.308594 117.886719 102.566406 125.464844 102.566406 Z M 125.464844 83.953125 C 128.097656 83.953125 130.074219 86.09375 130.074219 88.566406 C 130.074219 91.035156 127.933594 93.175781 125.464844 93.175781 C 122.992188 93.175781 120.851562 91.035156 120.851562 88.566406 C 120.851562 86.09375 122.992188 83.953125 125.464844 83.953125 Z M 125.464844 83.953125 " fill-opacity="1" fill-rule="nonzero"/></svg>