<svg xmlns="http://www.w3.org/2000/svg" xmlns:xlink="http://www.w3.org/1999/xlink" width="500" zoomAndPan="magnify" viewBox="0 0 375 374.999991" height="500" preserveAspectRatio="xMidYMid meet" version="1.0"><defs><clipPath id="b8b8135285"><path d="M 107 37.5 L 313 37.5 L 313 160 L 107 160 Z M 107 37.5 " clip-rule="nonzero"/></clipPath><clipPath id="4c2ca4e0ff"><path d="M 162 146 L 337.234375 146 L 337.234375 337.46875 L 162 337.46875 Z M 162 146 " clip-rule="nonzero"/></clipPath><clipPath id="e1da052d2b"><path d="M 37.5 120 L 158 120 L 158 317 L 37.5 317 Z M 37.5 120 " clip-rule="nonzero"/></clipPath></defs><g clip-path="url(#b8b8135285)"><path fill="#000000" d="M 268.628906 149.488281 L 212.65625 142.90625 L 224.925781 135.117188 C 227.324219 133.621094 227.917969 130.625 226.714844 128.226562 L 185.699219 47.984375 L 237.195312 47.984375 C 245.882812 47.984375 253.964844 53.085938 257.859375 60.863281 L 277.320312 95.292969 C 278.523438 97.691406 281.519531 98.59375 283.90625 97.386719 L 296.488281 90.804688 Z M 165.640625 112.964844 L 119.539062 82.722656 L 132.414062 60.863281 C 136.90625 53.085938 145.28125 47.984375 154.261719 47.984375 L 174.625 47.984375 L 186.902344 73.738281 Z M 309.355469 74.335938 C 307.855469 73.738281 306.359375 73.738281 304.863281 74.335938 L 283.601562 85.714844 L 266.550781 55.773438 C 260.851562 44.699219 249.472656 37.507812 237.195312 37.8125 L 154.261719 37.8125 C 141.992188 37.8125 130.308594 44.699219 124.027344 55.472656 L 108.460938 81.527344 C 106.964844 83.914062 107.855469 87.210938 109.960938 88.710938 L 164.742188 124.636719 C 165.640625 125.234375 166.542969 125.539062 167.441406 125.539062 C 167.734375 125.539062 168.34375 125.539062 168.636719 125.234375 C 169.839844 124.941406 171.03125 124.039062 171.628906 122.835938 L 192.585938 83.914062 L 215.652344 128.824219 L 194.691406 141.699219 C 192.890625 142.90625 191.992188 145 192.285156 147.09375 C 192.890625 149.1875 194.386719 150.988281 196.480469 150.988281 L 270.734375 159.664062 C 271.039062 159.664062 271.039062 159.664062 271.332031 159.664062 C 273.121094 159.664062 274.921875 158.472656 275.824219 156.671875 L 311.460938 80.921875 C 312.957031 78.828125 311.75 75.832031 309.355469 74.335938 " fill-opacity="1" fill-rule="nonzero"/></g><g clip-path="url(#4c2ca4e0ff)"><path fill="#000000" d="M 323.433594 213.859375 L 314.453125 228.832031 L 280.3125 228.832031 L 259.0625 189.605469 L 310.253906 158.472656 L 324.019531 187.207031 C 328.511719 195.59375 328.21875 205.78125 323.433594 213.859375 Z M 277.917969 293.507812 C 274.035156 301.589844 265.941406 306.675781 257.261719 306.371094 L 217.441406 306.371094 C 214.738281 306.371094 212.351562 308.769531 212.351562 311.472656 L 212.351562 316.851562 L 174.027344 265.355469 L 212.351562 221.652344 L 212.351562 234.222656 C 212.351562 237.21875 214.445312 239.308594 217.441406 239.308594 L 308.464844 239.308594 Z M 332.710938 182.425781 L 316.535156 149.1875 C 315.34375 146.496094 312.347656 145.59375 309.960938 146.789062 C 309.960938 146.789062 309.65625 146.789062 309.65625 147.09375 L 249.777344 183.324219 C 247.378906 184.519531 246.785156 187.511719 247.976562 189.910156 L 268.933594 228.832031 L 222.527344 228.832031 L 222.527344 208.175781 C 222.527344 205.183594 220.433594 203.078125 217.441406 203.078125 C 215.941406 203.078125 214.738281 203.6875 213.851562 204.878906 L 163.851562 261.765625 C 162.355469 263.566406 162.050781 266.257812 163.546875 268.351562 L 213.546875 335.421875 C 215.347656 337.808594 218.339844 338.113281 220.433594 336.3125 C 221.640625 335.421875 222.222656 333.925781 222.222656 332.125 L 222.222656 316.558594 L 257.261719 316.558594 C 269.542969 316.851562 280.910156 309.972656 286.59375 298.59375 L 321.632812 236.621094 L 332.113281 219.253906 C 338.699219 207.875 339 193.804688 332.710938 182.425781 " fill-opacity="1" fill-rule="nonzero"/></g><g clip-path="url(#e1da052d2b)"><path fill="#000000" d="M 129.714844 177.933594 C 127.316406 177.03125 124.929688 177.933594 123.726562 180.027344 L 80.617188 257.871094 L 57.261719 215.953125 C 53.074219 207.875 53.074219 197.992188 57.566406 189.910156 L 76.125 151.28125 C 77.316406 148.894531 76.417969 145.898438 74.324219 144.695312 L 58.757812 134.8125 L 119.539062 130.929688 L 142.894531 183.324219 Z M 137.503906 244.398438 L 137.503906 306.371094 L 122.53125 306.371094 C 113.246094 306.371094 104.566406 301.285156 100.078125 292.898438 L 86.300781 268.351562 L 100.371094 244.398438 Z M 156.964844 190.503906 L 127.023438 123.445312 C 126.121094 121.644531 124.320312 120.449219 122.226562 120.449219 L 42.59375 125.539062 C 39.894531 125.832031 37.800781 128.226562 37.800781 130.929688 C 37.800781 132.71875 38.699219 134.214844 40.195312 135.117188 L 64.746094 150.988281 L 48.277344 185.113281 C 42.289062 196.203125 42.289062 209.964844 48.277344 221.042969 L 76.125 270.746094 L 91.386719 297.996094 C 97.984375 309.367188 109.65625 316.558594 122.53125 316.558594 L 142.589844 316.558594 C 145.28125 316.558594 147.675781 314.160156 147.675781 311.472656 L 147.675781 239.007812 C 147.675781 236.011719 145.582031 233.917969 142.589844 233.917969 L 105.164062 233.917969 L 130.015625 189.3125 L 150.671875 197.394531 C 153.371094 198.292969 156.0625 197.089844 157.253906 194.398438 C 157.558594 193.207031 157.558594 191.710938 156.964844 190.503906 " fill-opacity="1" fill-rule="nonzero"/></g></svg>