<svg xmlns="http://www.w3.org/2000/svg" xmlns:xlink="http://www.w3.org/1999/xlink" width="500" zoomAndPan="magnify" viewBox="0 0 375 374.999991" height="500" preserveAspectRatio="xMidYMid meet" version="1.0"><defs><clipPath id="e45480bf39"><path d="M 51.5625 37.5 L 323.8125 37.5 L 323.8125 337.5 L 51.5625 337.5 Z M 51.5625 37.5 " clip-rule="nonzero"/></clipPath></defs><g clip-path="url(#e45480bf39)"><path fill="#000000" d="M 243.847656 106.097656 C 225.746094 106.097656 205.679688 115.078125 194.25 121.097656 C 195.066406 116.296875 196.578125 110.125 199.402344 103.867188 C 207.183594 86.632812 220.910156 77.3125 240.195312 76.164062 L 239.570312 65.625 C 219.324219 66.828125 206.296875 75.539062 197.898438 86.191406 C 197.339844 80.273438 195.894531 74.328125 192.957031 68.789062 C 179.796875 43.980469 143.660156 38.355469 142.125 38.128906 L 138.269531 37.558594 L 136.582031 41.058594 C 135.910156 42.453125 120.269531 75.464844 133.457031 100.285156 C 134.617188 102.476562 135.96875 104.507812 137.449219 106.410156 C 135.53125 106.226562 133.625 106.097656 131.738281 106.097656 C 94.34375 106.097656 51.710938 158.550781 51.710938 204.554688 C 51.710938 317.941406 185.734375 337.292969 187.089844 337.476562 C 187.324219 337.507812 187.558594 337.523438 187.792969 337.523438 C 188.097656 337.523438 188.398438 337.496094 188.695312 337.445312 C 190.054688 337.214844 323.875 312.765625 323.875 201.035156 C 323.871094 155.78125 281.988281 106.097656 243.847656 106.097656 Z M 144.542969 49.375 C 153.519531 51.433594 175.21875 57.914062 183.609375 73.730469 C 192.003906 89.554688 185.191406 111.128906 181.859375 119.703125 C 179.921875 119.265625 177.378906 118.601562 174.519531 117.699219 C 170.378906 115.738281 165.683594 113.71875 160.648438 111.910156 C 153.574219 108.097656 146.742188 102.757812 142.800781 95.335938 C 134.398438 79.515625 141.210938 57.945312 144.542969 49.375 Z M 187.6875 326.882812 C 182.496094 326.0625 153.367188 320.90625 124.703125 304.914062 C 83.285156 281.8125 62.289062 248.050781 62.289062 204.554688 C 62.289062 160.949219 102.695312 116.660156 131.738281 116.660156 C 139.785156 116.660156 148.503906 118.839844 156.519531 121.6875 C 161.398438 124.242188 166.269531 126.148438 170.546875 127.535156 C 173.671875 129.027344 176.382812 130.445312 178.628906 131.667969 C 152.226562 157.835938 143.816406 195.429688 154.40625 241.019531 L 164.707031 238.632812 C 154.375 194.117188 162.859375 159.511719 189.824219 135.679688 C 190.09375 135.566406 190.382812 135.476562 190.636719 135.3125 C 190.925781 135.125 220.238281 116.660156 243.847656 116.660156 C 273.53125 116.660156 313.292969 158.375 313.292969 201.03125 C 313.292969 299.496094 198.484375 324.738281 187.6875 326.882812 Z M 187.6875 326.882812 " fill-opacity="1" fill-rule="nonzero"/></g></svg>