<?xml version="1.0" encoding="UTF-8"?>
<svg id="Layer_3" data-name="Layer 3" xmlns="http://www.w3.org/2000/svg" xmlns:xlink="http://www.w3.org/1999/xlink" viewBox="0 0 1000 400">
  <defs>
    <style>
      .cls-1 {
        fill: url(#linear-gradient);
      }

      .cls-1, .cls-2, .cls-3, .cls-4, .cls-5 {
        stroke-width: 0px;
      }

      .cls-6 {
        fill: none;
        stroke: #231f20;
        stroke-width: 4px;
      }

      .cls-2 {
        fill: #0068ff;
      }

      .cls-3 {
        fill: url(#linear-gradient-2);
      }

      .cls-4 {
        fill: url(#linear-gradient-3);
      }

      .cls-5 {
        fill: #231f20;
      }
    </style>
    <linearGradient id="linear-gradient" x1="488.26" y1="281.49" x2="878.61" y2="281.49" gradientUnits="userSpaceOnUse">
      <stop offset="0" stop-color="#0068ff"/>
      <stop offset=".18" stop-color="#025bf6"/>
      <stop offset=".52" stop-color="#0839de"/>
      <stop offset=".97" stop-color="#1304b8"/>
      <stop offset="1" stop-color="#1400b6"/>
    </linearGradient>
    <linearGradient id="linear-gradient-2" x1="504.6" y1="283.87" x2="582.17" y2="283.87" gradientUnits="userSpaceOnUse">
      <stop offset="0" stop-color="#414042"/>
      <stop offset=".26" stop-color="#343335"/>
      <stop offset=".75" stop-color="#131314"/>
      <stop offset="1" stop-color="#000"/>
    </linearGradient>
    <linearGradient id="linear-gradient-3" x1="858.5" y1="286.56" x2="895.07" y2="286.56" xlink:href="#linear-gradient-2"/>
  </defs>
  <path class="cls-1" d="M490.69,313.11c24.1-14.21,52.22-17.48,78.93-18.23,28.77-.84,57.46,1.31,86.07,4.31,28.93,3.07,57.78,6.91,86.8,9.25,14.42,1.13,28.93,1.78,43.44,1.88,13.61.08,27.38.18,40.99-1.68,13.68-1.88,27.37-6.27,37.87-17.02,9.17-9.44,15.81-23.83,13.28-38.14-1.07-5.98-9.27-4.58-9.27,1.4.08,12.71-4.27,23.46-12.87,31.51-9.67,9.07-22.62,12.24-34.66,13.92-27.38,3.64-55.24,2.43-82.7.28-55.74-4.48-111.31-14.86-167.29-12.61-28.53,1.03-57.38,4.77-82.21,21.97-1.8,1.21-.24,4.3,1.63,3.17Z"/>
  <path class="cls-3" d="M505.39,292.36c24.42-10.19,49.67-12.62,75.48-12.81,1.39,0,1.89-2.71.33-2.9-25.82-4.39-52.71,2.63-76.39,14.49-.5.29-.08,1.5.57,1.22Z"/>
  <path class="cls-4" d="M859.07,308.72c9.42-1.49,18.12-6.63,24.68-14.39,3.35-3.92,6.22-8.41,8.19-13.36,1.63-3.93,4.67-10.94,2.21-14.96-1.15-1.86-3.11-2.15-4.59-.65-2.79,2.71-2.38,8.88-3.52,12.81-1.32,4.49-3.19,8.69-5.57,12.53-5.33,8.32-12.96,14.39-21.64,17.1-.57.1-.33,1.03.24.93Z"/>
  <g>
    <g>
      <g>
        <path class="cls-2" d="M104.93,203.62c0-43.64,27.08-69.55,66.63-69.55s66.63,25.91,66.63,69.55-27.08,69.55-66.63,69.55-66.63-25.91-66.63-69.55ZM210.52,203.62c0-25.72-13.25-40.33-38.96-40.33s-38.96,14.61-38.96,40.33,13.25,40.33,38.96,40.33,38.96-14.61,38.96-40.33Z"/>
        <path class="cls-5" d="M171.56,134.07c39.55,0,66.63,25.91,66.63,69.55s-27.08,69.55-66.63,69.55-66.63-25.91-66.63-69.55,27.08-69.55,66.63-69.55M171.56,243.94c25.72,0,38.96-14.61,38.96-40.33s-13.25-40.33-38.96-40.33-38.96,14.61-38.96,40.33,13.25,40.33,38.96,40.33M171.56,130.07c-42.91,0-70.63,28.87-70.63,73.55s27.72,73.55,70.63,73.55,70.63-28.87,70.63-73.55-27.72-73.55-70.63-73.55h0ZM171.56,239.94c-11.55,0-20.38-3.12-26.23-9.28-5.8-6.1-8.74-15.2-8.74-27.05s2.94-20.95,8.74-27.05c5.85-6.15,14.67-9.28,26.23-9.28s20.38,3.12,26.23,9.28c5.8,6.1,8.74,15.2,8.74,27.05s-2.94,20.95-8.74,27.05c-5.85,6.16-14.67,9.28-26.23,9.28h0Z"/>
      </g>
      <g>
        <path class="cls-2" d="M255.16,258.36v-107.15c0-9.74,6.82-14.81,13.44-14.81h39.35c31.17,0,48.71,14.22,48.71,39.74,0,14.03-6.43,30.39-24.16,37.21,7.79,3.31,12.08,10.13,15,18.9l6.82,18.9c4.68,12.08-1.56,22.01-12.27,22.01-6.04,0-10.91-4.29-13.05-10.71l-8.57-25.72c-2.73-7.99-8.38-11.1-17.53-12.47l-21.04-2.14v36.24c0,9.74-6.62,14.81-13.25,14.81s-13.44-4.87-13.44-14.81ZM281.85,197.19h24.74c13.83,0,23.18-5.84,23.18-16.75s-10.52-15.2-23.38-15.2h-24.55v31.95Z"/>
        <path class="cls-5" d="M307.96,136.4c31.17,0,48.7,14.22,48.7,39.74,0,14.03-6.43,30.39-24.16,37.21,7.79,3.31,12.08,10.13,15,18.9l6.82,18.9c4.68,12.08-1.56,22.01-12.27,22.01-6.04,0-10.91-4.29-13.05-10.71l-8.57-25.72c-2.73-7.99-8.38-11.1-17.53-12.47l-21.04-2.14v36.24c0,9.74-6.62,14.81-13.25,14.81s-13.44-4.87-13.44-14.81v-107.15c0-9.74,6.82-14.81,13.44-14.81h39.35M281.85,197.19h24.74c13.83,0,23.18-5.84,23.18-16.75s-10.52-15.2-23.38-15.2h-24.55v31.95M307.96,132.4h-39.35c-4.46,0-8.83,1.78-12.01,4.89-2.48,2.43-5.44,6.82-5.44,13.91v107.15c0,7.21,2.92,11.59,5.36,13.99,3.17,3.11,7.46,4.82,12.08,4.82,8.57,0,17.25-6.46,17.25-18.81v-31.81l16.54,1.68c8.38,1.26,12.24,3.92,14.25,9.79l8.56,25.69c2.77,8.3,9.22,13.45,16.85,13.45,6.12,0,11.47-2.69,14.68-7.38,3.69-5.38,4.17-12.68,1.34-20.03l-6.79-18.81c-1.77-5.29-4.68-12.19-10.56-17.17,5.83-3.53,10.59-8.4,13.98-14.33,4.92-8.62,5.96-17.43,5.96-23.29,0-27.8-19.21-43.74-52.7-43.74h0ZM285.85,169.24h20.55c7.24,0,19.38,1.45,19.38,11.2,0,11.51-13.42,12.75-19.18,12.75h-20.74v-23.95h0Z"/>
      </g>
      <g>
        <path class="cls-2" d="M386.63,270.83c-7.6,0-13.83-6.62-13.83-14.61v-105.01c0-8.18,6.23-14.81,13.83-14.81h43.25c37.21,0,45.2,20.46,45.2,36.43,0,15-7.99,26.5-25.33,30.98,20.46,1.75,29.81,11.88,29.81,30,0,16.75-12.27,37.02-45.59,37.02h-47.34ZM399.68,192.71h29.42c12.66,0,18.7-4.68,18.7-14.03,0-8.38-7.4-12.27-19.29-12.27h-28.83v26.3ZM399.68,240.63h31.37c14.81,0,20.65-5.65,20.65-13.83s-6.82-13.05-17.34-13.05h-34.68v26.89Z"/>
        <path class="cls-5" d="M429.88,136.4c37.21,0,45.2,20.46,45.2,36.43,0,15-7.99,26.5-25.33,30.98,20.46,1.75,29.81,11.88,29.81,30,0,16.75-12.27,37.02-45.59,37.02h-47.34c-7.6,0-13.83-6.62-13.83-14.61v-105.01c0-8.18,6.23-14.81,13.83-14.81h43.25M399.68,192.71h29.42c12.66,0,18.7-4.68,18.7-14.03,0-8.38-7.4-12.27-19.29-12.27h-28.83v26.3M399.68,240.63h31.37c14.81,0,20.65-5.65,20.65-13.83s-6.82-13.05-17.34-13.05h-34.68v26.89M429.88,132.4h-43.25c-9.83,0-17.83,8.44-17.83,18.81v105.01c0,10.26,8,18.61,17.83,18.61h47.34c16.08,0,29.26-4.63,38.1-13.38,7.3-7.23,11.49-17.3,11.49-27.63,0-16.06-6.81-26.54-20.28-31.31,10.28-6.32,15.8-16.52,15.8-29.67,0-10.82-3.36-20.13-9.72-26.94-8.37-8.95-21.65-13.49-39.48-13.49h0ZM403.68,170.41h24.83c10.14,0,15.29,2.78,15.29,8.27,0,4.96-1.75,10.03-14.7,10.03h-25.42v-18.3h0ZM403.68,217.75h30.68c11.02,0,13.34,4.92,13.34,9.05,0,2.43,0,9.83-16.65,9.83h-27.37v-18.89h0Z"/>
      </g>
      <g>
        <path class="cls-2" d="M495.42,258.36v-109.49c0-9.74,6.62-14.81,13.44-14.81s13.44,5.07,13.44,14.81v109.49c0,9.74-6.62,14.81-13.44,14.81s-13.44-5.07-13.44-14.81Z"/>
        <path class="cls-5" d="M508.86,134.07c6.82,0,13.44,5.07,13.44,14.81v109.49c0,9.74-6.62,14.81-13.44,14.81s-13.44-5.07-13.44-14.81v-109.49c0-9.74,6.62-14.81,13.44-14.81M508.86,130.07c-8.67,0-17.44,6.46-17.44,18.81v109.49c0,12.35,8.77,18.81,17.44,18.81s17.44-6.46,17.44-18.81v-109.49c0-12.35-8.78-18.81-17.44-18.81h0Z"/>
      </g>
      <g>
        <path class="cls-2" d="M552.34,251.66V119.84h-133.77c-8.38,0-15.2-6.82-15.2-15s6.82-15.2,15.2-15.2h244.64c8.38,0,15,6.82,15,15.2s-6.62,15-15,15h-83.99v131.82c0,7.4-5.84,13.44-13.44,13.44s-13.44-6.04-13.44-13.44Z"/>
        <path class="cls-5" d="M663.21,89.65c8.38,0,15,6.82,15,15.2s-6.62,15-15,15h-83.99v131.82c0,7.4-5.84,13.44-13.44,13.44s-13.44-6.04-13.44-13.44V119.84h-133.77c-8.38,0-15.2-6.82-15.2-15s6.82-15.2,15.2-15.2h244.64M663.21,85.65h-244.64c-10.58,0-19.2,8.61-19.2,19.2s8.61,19,19.2,19h129.77v127.82c0,9.62,7.82,17.44,17.44,17.44s17.44-7.66,17.44-17.44v-127.82h79.99c10.48,0,19-8.52,19-19s-8.52-19.2-19-19.2h0Z"/>
      </g>
      <g>
        <path class="cls-2" d="M607.14,277.42c-9.35,0-16.56-7.01-16.56-17.14,0-5.26,2.53-10.91,6.82-16.75l55.72-70.33h-48.32c-7.79,0-14.22-6.62-14.22-15s6.43-15.2,14.22-15.2h65.27c10.71,0,18.12,7.6,18.12,17.53,0,4.68-1.75,9.55-5.84,15l-56.5,71.89h52.99c7.79,0,14.22,6.43,14.22,15s-6.43,15-14.22,15h-71.69Z"/>
        <path class="cls-5" d="M670.06,142.99c10.71,0,18.12,7.6,18.12,17.53,0,4.68-1.75,9.55-5.84,15l-56.5,71.89h52.99c7.79,0,14.22,6.43,14.22,15s-6.43,15-14.22,15h-71.69c-9.35,0-16.56-7.01-16.56-17.14,0-5.26,2.53-10.91,6.82-16.75l55.72-70.33h-48.32c-7.79,0-14.22-6.62-14.22-15s6.43-15.2,14.22-15.2h65.27M670.06,138.99h-65.27c-10.05,0-18.22,8.61-18.22,19.2s8.17,19,18.22,19h40.04l-50.58,63.85-.05.06-.04.06c-5.11,6.97-7.59,13.22-7.59,19.12,0,12.05,8.84,21.14,20.56,21.14h71.69c10.22,0,18.22-8.35,18.22-19s-8-19-18.22-19h-44.76l51.41-65.42.03-.04.03-.04c4.47-5.96,6.64-11.65,6.64-17.4,0-12.28-9.51-21.53-22.12-21.53h0Z"/>
      </g>
    </g>
    <g>
      <g>
        <path class="cls-6" d="M104.93,203.62c0-43.64,27.08-69.55,66.63-69.55s66.63,25.91,66.63,69.55-27.08,69.55-66.63,69.55-66.63-25.91-66.63-69.55ZM210.52,203.62c0-25.72-13.25-40.33-38.96-40.33s-38.96,14.61-38.96,40.33,13.25,40.33,38.96,40.33,38.96-14.61,38.96-40.33Z"/>
        <path class="cls-6" d="M104.93,203.62c0-43.64,27.08-69.55,66.63-69.55s66.63,25.91,66.63,69.55-27.08,69.55-66.63,69.55-66.63-25.91-66.63-69.55ZM210.52,203.62c0-25.72-13.25-40.33-38.96-40.33s-38.96,14.61-38.96,40.33,13.25,40.33,38.96,40.33,38.96-14.61,38.96-40.33Z"/>
        <path class="cls-6" d="M171.56,134.07c39.55,0,66.63,25.91,66.63,69.55s-27.08,69.55-66.63,69.55-66.63-25.91-66.63-69.55,27.08-69.55,66.63-69.55M171.56,243.94c25.72,0,38.96-14.61,38.96-40.33s-13.25-40.33-38.96-40.33-38.96,14.61-38.96,40.33,13.25,40.33,38.96,40.33M171.56,130.07c-42.91,0-70.63,28.87-70.63,73.55s27.72,73.55,70.63,73.55,70.63-28.87,70.63-73.55-27.72-73.55-70.63-73.55h0ZM171.56,239.94c-11.55,0-20.38-3.12-26.23-9.28-5.8-6.1-8.74-15.2-8.74-27.05s2.94-20.95,8.74-27.05c5.85-6.15,14.67-9.28,26.23-9.28s20.38,3.12,26.23,9.28c5.8,6.1,8.74,15.2,8.74,27.05s-2.94,20.95-8.74,27.05c-5.85,6.16-14.67,9.28-26.23,9.28h0Z"/>
      </g>
      <g>
        <path class="cls-6" d="M255.16,258.36v-107.15c0-9.74,6.82-14.81,13.44-14.81h39.35c31.17,0,48.71,14.22,48.71,39.74,0,14.03-6.43,30.39-24.16,37.21,7.79,3.31,12.08,10.13,15,18.9l6.82,18.9c4.68,12.08-1.56,22.01-12.27,22.01-6.04,0-10.91-4.29-13.05-10.71l-8.57-25.72c-2.73-7.99-8.38-11.1-17.53-12.47l-21.04-2.14v36.24c0,9.74-6.62,14.81-13.25,14.81s-13.44-4.87-13.44-14.81ZM281.85,197.19h24.74c13.83,0,23.18-5.84,23.18-16.75s-10.52-15.2-23.38-15.2h-24.55v31.95Z"/>
        <path class="cls-6" d="M255.16,258.36v-107.15c0-9.74,6.82-14.81,13.44-14.81h39.35c31.17,0,48.71,14.22,48.71,39.74,0,14.03-6.43,30.39-24.16,37.21,7.79,3.31,12.08,10.13,15,18.9l6.82,18.9c4.68,12.08-1.56,22.01-12.27,22.01-6.04,0-10.91-4.29-13.05-10.71l-8.57-25.72c-2.73-7.99-8.38-11.1-17.53-12.47l-21.04-2.14v36.24c0,9.74-6.62,14.81-13.25,14.81s-13.44-4.87-13.44-14.81ZM281.85,197.19h24.74c13.83,0,23.18-5.84,23.18-16.75s-10.52-15.2-23.38-15.2h-24.55v31.95Z"/>
        <path class="cls-6" d="M307.96,136.4c31.17,0,48.7,14.22,48.7,39.74,0,14.03-6.43,30.39-24.16,37.21,7.79,3.31,12.08,10.13,15,18.9l6.82,18.9c4.68,12.08-1.56,22.01-12.27,22.01-6.04,0-10.91-4.29-13.05-10.71l-8.57-25.72c-2.73-7.99-8.38-11.1-17.53-12.47l-21.04-2.14v36.24c0,9.74-6.62,14.81-13.25,14.81s-13.44-4.87-13.44-14.81v-107.15c0-9.74,6.82-14.81,13.44-14.81h39.35M281.85,197.19h24.74c13.83,0,23.18-5.84,23.18-16.75s-10.52-15.2-23.38-15.2h-24.55v31.95M307.96,132.4h-39.35c-4.46,0-8.83,1.78-12.01,4.89-2.48,2.43-5.44,6.82-5.44,13.91v107.15c0,7.21,2.92,11.59,5.36,13.99,3.17,3.11,7.46,4.82,12.08,4.82,8.57,0,17.25-6.46,17.25-18.81v-31.81l16.54,1.68c8.38,1.26,12.24,3.92,14.25,9.79l8.56,25.69c2.77,8.3,9.22,13.45,16.85,13.45,6.12,0,11.47-2.69,14.68-7.38,3.69-5.38,4.17-12.68,1.34-20.03l-6.79-18.81c-1.77-5.29-4.68-12.19-10.56-17.17,5.83-3.53,10.59-8.4,13.98-14.33,4.92-8.62,5.96-17.43,5.96-23.29,0-27.8-19.21-43.74-52.7-43.74h0ZM285.85,169.24h20.55c7.24,0,19.38,1.45,19.38,11.2,0,11.51-13.42,12.75-19.18,12.75h-20.74v-23.95h0Z"/>
      </g>
      <g>
        <path class="cls-6" d="M386.63,270.83c-7.6,0-13.83-6.62-13.83-14.61v-105.01c0-8.18,6.23-14.81,13.83-14.81h43.25c37.21,0,45.2,20.46,45.2,36.43,0,15-7.99,26.5-25.33,30.98,20.46,1.75,29.81,11.88,29.81,30,0,16.75-12.27,37.02-45.59,37.02h-47.34ZM399.68,192.71h29.42c12.66,0,18.7-4.68,18.7-14.03,0-8.38-7.4-12.27-19.29-12.27h-28.83v26.3ZM399.68,240.63h31.37c14.81,0,20.65-5.65,20.65-13.83s-6.82-13.05-17.34-13.05h-34.68v26.89Z"/>
        <path class="cls-6" d="M386.63,270.83c-7.6,0-13.83-6.62-13.83-14.61v-105.01c0-8.18,6.23-14.81,13.83-14.81h43.25c37.21,0,45.2,20.46,45.2,36.43,0,15-7.99,26.5-25.33,30.98,20.46,1.75,29.81,11.88,29.81,30,0,16.75-12.27,37.02-45.59,37.02h-47.34ZM399.68,192.71h29.42c12.66,0,18.7-4.68,18.7-14.03,0-8.38-7.4-12.27-19.29-12.27h-28.83v26.3ZM399.68,240.63h31.37c14.81,0,20.65-5.65,20.65-13.83s-6.82-13.05-17.34-13.05h-34.68v26.89Z"/>
        <path class="cls-6" d="M429.88,136.4c37.21,0,45.2,20.46,45.2,36.43,0,15-7.99,26.5-25.33,30.98,20.46,1.75,29.81,11.88,29.81,30,0,16.75-12.27,37.02-45.59,37.02h-47.34c-7.6,0-13.83-6.62-13.83-14.61v-105.01c0-8.18,6.23-14.81,13.83-14.81h43.25M399.68,192.71h29.42c12.66,0,18.7-4.68,18.7-14.03,0-8.38-7.4-12.27-19.29-12.27h-28.83v26.3M399.68,240.63h31.37c14.81,0,20.65-5.65,20.65-13.83s-6.82-13.05-17.34-13.05h-34.68v26.89M429.88,132.4h-43.25c-9.83,0-17.83,8.44-17.83,18.81v105.01c0,10.26,8,18.61,17.83,18.61h47.34c16.08,0,29.26-4.63,38.1-13.38,7.3-7.23,11.49-17.3,11.49-27.63,0-16.06-6.81-26.54-20.28-31.31,10.28-6.32,15.8-16.52,15.8-29.67,0-10.82-3.36-20.13-9.72-26.94-8.37-8.95-21.65-13.49-39.48-13.49h0ZM403.68,170.41h24.83c10.14,0,15.29,2.78,15.29,8.27,0,4.96-1.75,10.03-14.7,10.03h-25.42v-18.3h0ZM403.68,217.75h30.68c11.02,0,13.34,4.92,13.34,9.05,0,2.43,0,9.83-16.65,9.83h-27.37v-18.89h0Z"/>
      </g>
      <g>
        <path class="cls-6" d="M495.42,258.36v-109.49c0-9.74,6.62-14.81,13.44-14.81s13.44,5.07,13.44,14.81v109.49c0,9.74-6.62,14.81-13.44,14.81s-13.44-5.07-13.44-14.81Z"/>
        <path class="cls-6" d="M495.42,258.36v-109.49c0-9.74,6.62-14.81,13.44-14.81s13.44,5.07,13.44,14.81v109.49c0,9.74-6.62,14.81-13.44,14.81s-13.44-5.07-13.44-14.81Z"/>
        <path class="cls-6" d="M508.86,134.07c6.82,0,13.44,5.07,13.44,14.81v109.49c0,9.74-6.62,14.81-13.44,14.81s-13.44-5.07-13.44-14.81v-109.49c0-9.74,6.62-14.81,13.44-14.81M508.86,130.07c-8.67,0-17.44,6.46-17.44,18.81v109.49c0,12.35,8.77,18.81,17.44,18.81s17.44-6.46,17.44-18.81v-109.49c0-12.35-8.78-18.81-17.44-18.81h0Z"/>
      </g>
      <g>
        <path class="cls-6" d="M552.34,251.66V119.84h-133.77c-8.38,0-15.2-6.82-15.2-15s6.82-15.2,15.2-15.2h244.64c8.38,0,15,6.82,15,15.2s-6.62,15-15,15h-83.99v131.82c0,7.4-5.84,13.44-13.44,13.44s-13.44-6.04-13.44-13.44Z"/>
        <path class="cls-6" d="M552.34,251.66V119.84h-133.77c-8.38,0-15.2-6.82-15.2-15s6.82-15.2,15.2-15.2h244.64c8.38,0,15,6.82,15,15.2s-6.62,15-15,15h-83.99v131.82c0,7.4-5.84,13.44-13.44,13.44s-13.44-6.04-13.44-13.44Z"/>
        <path class="cls-6" d="M663.21,89.65c8.38,0,15,6.82,15,15.2s-6.62,15-15,15h-83.99v131.82c0,7.4-5.84,13.44-13.44,13.44s-13.44-6.04-13.44-13.44V119.84h-133.77c-8.38,0-15.2-6.82-15.2-15s6.82-15.2,15.2-15.2h244.64M663.21,85.65h-244.64c-10.58,0-19.2,8.61-19.2,19.2s8.61,19,19.2,19h129.77v127.82c0,9.62,7.82,17.44,17.44,17.44s17.44-7.66,17.44-17.44v-127.82h79.99c10.48,0,19-8.52,19-19s-8.52-19.2-19-19.2h0Z"/>
      </g>
      <g>
        <path class="cls-6" d="M607.14,277.42c-9.35,0-16.56-7.01-16.56-17.14,0-5.26,2.53-10.91,6.82-16.75l55.72-70.33h-48.32c-7.79,0-14.22-6.62-14.22-15s6.43-15.2,14.22-15.2h65.27c10.71,0,18.12,7.6,18.12,17.53,0,4.68-1.75,9.55-5.84,15l-56.5,71.89h52.99c7.79,0,14.22,6.43,14.22,15s-6.43,15-14.22,15h-71.69Z"/>
        <path class="cls-6" d="M607.14,277.42c-9.35,0-16.56-7.01-16.56-17.14,0-5.26,2.53-10.91,6.82-16.75l55.72-70.33h-48.32c-7.79,0-14.22-6.62-14.22-15s6.43-15.2,14.22-15.2h65.27c10.71,0,18.12,7.6,18.12,17.53,0,4.68-1.75,9.55-5.84,15l-56.5,71.89h52.99c7.79,0,14.22,6.43,14.22,15s-6.43,15-14.22,15h-71.69Z"/>
        <path class="cls-6" d="M670.06,142.99c10.71,0,18.12,7.6,18.12,17.53,0,4.68-1.75,9.55-5.84,15l-56.5,71.89h52.99c7.79,0,14.22,6.43,14.22,15s-6.43,15-14.22,15h-71.69c-9.35,0-16.56-7.01-16.56-17.14,0-5.26,2.53-10.91,6.82-16.75l55.72-70.33h-48.32c-7.79,0-14.22-6.62-14.22-15s6.43-15.2,14.22-15.2h65.27M670.06,138.99h-65.27c-10.05,0-18.22,8.61-18.22,19.2s8.17,19,18.22,19h40.04l-50.58,63.85-.05.06-.04.06c-5.11,6.97-7.59,13.22-7.59,19.12,0,12.05,8.84,21.14,20.56,21.14h71.69c10.22,0,18.22-8.35,18.22-19s-8-19-18.22-19h-44.76l51.41-65.42.03-.04.03-.04c4.47-5.96,6.64-11.65,6.64-17.4,0-12.28-9.51-21.53-22.12-21.53h0Z"/>
      </g>
    </g>
  </g>
</svg>